<?xml version="1.0" encoding="UTF-8" standalone="no"?>
<!DOCTYPE svg PUBLIC "-//W3C//DTD SVG 1.1//EN" "http://www.w3.org/Graphics/SVG/1.1/DTD/svg11.dtd">
<svg version="1.1" xmlns="http://www.w3.org/2000/svg" xmlns:xlink="http://www.w3.org/1999/xlink" preserveAspectRatio="xMidYMid meet" viewBox="0 0 16 16" width="16" height="16"><defs><path d="M10.52 0.41L11.67 0.9L12.72 1.55L13.65 2.35L14.45 3.28L15.1 4.33L15.59 5.48L15.89 6.71L16 8L15.89 9.29L15.59 10.52L15.1 11.67L14.45 12.72L13.65 13.65L12.72 14.45L11.67 15.1L10.52 15.59L9.29 15.89L8 16L6.71 15.89L5.48 15.59L4.33 15.1L3.28 14.45L2.35 13.65L1.55 12.72L0.9 11.67L0.41 10.52L0.11 9.29L0 8L0.11 6.71L0.41 5.48L0.9 4.33L1.55 3.28L2.35 2.35L3.28 1.55L4.33 0.9L5.48 0.41L6.71 0.11L8 0L9.29 0.11L10.52 0.41ZM6.6 2.15L6.19 2.28L5.79 2.43L5.41 2.6L5.05 2.79L4.7 3L5 3.38L5.27 3.82L5.49 4.3L5.64 4.8L5.69 5.28L5.62 5.72L5.4 6.1L5.07 6.42L4.64 6.69L4.16 6.93L3.7 7.17L3.29 7.41L3.01 7.68L2.9 8L2.95 8.26L3.07 8.54L3.25 8.82L3.48 9.11L3.72 9.4L3.97 9.7L4.2 10L4.41 10.35L4.55 10.73L4.6 11.11L4.58 11.49L4.49 11.87L4.33 12.25L4.1 12.6L4.58 12.96L5.09 13.27L5.62 13.53L6.18 13.73L6.76 13.88L7.37 13.97L8 14L9.37 13.84L10.63 13.39L11.75 12.68L12.68 11.75L13.39 10.63L13.84 9.37L14 8L13.98 7.45L13.91 6.91L13.8 6.39L13.65 5.89L13.46 5.4L13.24 4.94L13 4.5L12.53 4.61L12 4.69L11.46 4.74L10.95 4.78L10.51 4.79L10.18 4.8L10 4.8L9.73 4.77L9.52 4.68L9.35 4.54L9.2 4.35L9.05 4.11L8.89 3.82L8.7 3.5L8.55 3.32L8.37 3.12L8.16 2.9L7.96 2.67L7.77 2.45L7.61 2.22L7.5 2L7.04 2.06L6.6 2.15Z" id="c4F8HLWxEg"></path><path d="M8 8.6C8.3 11.1 7.5 12 8.6 12.5C9.9 13 12.5 10.6 12.4 8.6C12.4 7.5 11.5 6.7 10.2 6.7C9 6.7 7.9 7.5 8 8.6Z" id="a15LzzgIjp"></path></defs><g><g><g><use xlink:href="#c4F8HLWxEg" opacity="1" fill="#ffffff" fill-opacity="1"></use><g><use xlink:href="#c4F8HLWxEg" opacity="1" fill-opacity="0" stroke="#000000" stroke-width="1" stroke-opacity="0"></use></g></g><g><use xlink:href="#a15LzzgIjp" opacity="1" fill="#ffffff" fill-opacity="1"></use><g><use xlink:href="#a15LzzgIjp" opacity="1" fill-opacity="0" stroke="#000000" stroke-width="1" stroke-opacity="0"></use></g></g></g></g></svg>