<?xml version="1.0" encoding="UTF-8" standalone="no"?>
<!DOCTYPE svg PUBLIC "-//W3C//DTD SVG 1.1//EN" "http://www.w3.org/Graphics/SVG/1.1/DTD/svg11.dtd">
<svg version="1.1" xmlns="http://www.w3.org/2000/svg" xmlns:xlink="http://www.w3.org/1999/xlink" preserveAspectRatio="xMidYMid meet" viewBox="0 0 16 16" width="16" height="16"><defs><path d="M10 6C10 6 10 6 10 6C10 7.2 10 7.87 10 8C10 8 10 8 10 8C7.6 8 6.27 8 6 8C6 8 6 8 6 8C6 6.8 6 6.13 6 6C6 6 6 6 6 6C8.4 6 9.73 6 10 6Z" id="a3j9No0ec"></path><path d="M8.19 0.02L8.31 0.05L8.43 0.1L8.54 0.16L8.65 0.24L15.65 6.24L15.76 6.35L15.84 6.46L15.91 6.59L15.96 6.72L15.99 6.85L16 6.99L15.99 7.13L15.96 7.27L15.92 7.4L15.85 7.53L15.76 7.65L15.7 7.71L15.64 7.77L15.58 7.81L15.52 7.86L15.45 7.9L15.38 7.93L15.3 7.95L15.23 7.97L15.15 7.99L15.08 8L15 8L14.94 8L14.87 7.99L14.81 7.98L14.75 7.97L14.69 7.95L14.63 7.93L14.57 7.9L14.51 7.87L14.46 7.84L14.4 7.8L14.35 7.76L14 7.46L14 15L13.99 15.15L13.96 15.29L13.91 15.42L13.84 15.54L13.75 15.66L13.66 15.75L13.54 15.84L13.42 15.91L13.29 15.96L13.15 15.99L13 16L3 16L2.85 15.99L2.71 15.96L2.58 15.91L2.46 15.84L2.34 15.75L2.25 15.66L2.16 15.54L2.09 15.42L2.04 15.29L2.01 15.15L2 15L2 7.46L1.65 7.76L1.53 7.85L1.4 7.91L1.27 7.96L1.13 7.99L0.99 8L0.85 7.99L0.72 7.96L0.59 7.91L0.46 7.84L0.35 7.76L0.24 7.65L0.15 7.53L0.08 7.4L0.04 7.27L0.01 7.13L0 6.99L0.01 6.85L0.04 6.72L0.09 6.59L0.16 6.46L0.24 6.35L0.35 6.24L2 4.83L2 2L2.01 1.85L2.04 1.71L2.09 1.58L2.16 1.46L2.25 1.34L2.34 1.25L2.46 1.16L2.58 1.09L2.71 1.04L2.85 1.01L3 1L3.15 1.01L3.29 1.04L3.42 1.09L3.54 1.16L3.66 1.25L3.75 1.34L3.84 1.46L3.91 1.58L3.96 1.71L3.99 1.85L4 2L4 3.11L7.35 0.24L7.46 0.16L7.57 0.1L7.69 0.05L7.81 0.02L7.94 0L8.06 0L8.19 0.02ZM4 14L6 14L6 10L10 10L10 14L12 14L12 5.75L8 2.32L4 5.75L4 14Z" id="cDR5aQXaH"></path></defs><g><g><g><use xlink:href="#a3j9No0ec" opacity="1" fill="#ffffff" fill-opacity="1"></use><g><use xlink:href="#a3j9No0ec" opacity="1" fill-opacity="0" stroke="#000000" stroke-width="1" stroke-opacity="0"></use></g></g><g><use xlink:href="#cDR5aQXaH" opacity="1" fill="#ffffff" fill-opacity="1"></use><g><use xlink:href="#cDR5aQXaH" opacity="1" fill-opacity="0" stroke="#000000" stroke-width="1" stroke-opacity="0"></use></g></g></g></g></svg>