<?xml version="1.0" encoding="UTF-8" standalone="no"?>
<!DOCTYPE svg PUBLIC "-//W3C//DTD SVG 1.1//EN" "http://www.w3.org/Graphics/SVG/1.1/DTD/svg11.dtd">
<svg version="1.1" xmlns="http://www.w3.org/2000/svg" xmlns:xlink="http://www.w3.org/1999/xlink" preserveAspectRatio="xMidYMid meet" viewBox="0 0 16 16" width="16" height="16"><defs><path d="M11.1 0.02L11.29 0.06L11.49 0.12L11.7 0.2L15.7 4.22L15.82 4.37L15.91 4.52L15.97 4.68L16 4.85L16 5.01L15.97 5.18L15.91 5.34L15.82 5.49L15.7 5.63L5.7 15.7L5.63 15.76L5.57 15.82L5.5 15.87L5.43 15.91L5.35 15.94L5.27 15.97L5.19 15.99L5.1 16L5 16L1 16L0.81 15.99L0.63 15.94L0.47 15.87L0.34 15.78L0.22 15.66L0.13 15.52L0.06 15.36L0.01 15.19L0 14.99L0 10.97L0 10.87L0.01 10.78L0.03 10.7L0.06 10.62L0.09 10.54L0.13 10.47L0.18 10.4L0.24 10.33L0.3 10.26L10.3 0.2L10.4 0.12L10.51 0.06L10.64 0.02L10.78 0L10.93 0L11.1 0.02ZM2 13.99L4.6 13.99L10.6 7.95L8 5.33L2 11.37L2 13.99ZM12 6.54L13.6 4.93L11 2.31L9.4 3.92L12 6.54Z" id="ahUPcO7wm"></path></defs><g><g><g><use xlink:href="#ahUPcO7wm" opacity="1" fill="#ffffff" fill-opacity="1"></use><g><use xlink:href="#ahUPcO7wm" opacity="1" fill-opacity="0" stroke="#000000" stroke-width="1" stroke-opacity="0"></use></g></g></g></g></svg>