<?xml version="1.0" encoding="UTF-8" standalone="no"?>
<!DOCTYPE svg PUBLIC "-//W3C//DTD SVG 1.1//EN" "http://www.w3.org/Graphics/SVG/1.1/DTD/svg11.dtd">
<svg version="1.1" xmlns="http://www.w3.org/2000/svg" xmlns:xlink="http://www.w3.org/1999/xlink" preserveAspectRatio="xMidYMid meet" viewBox="0 0 16 16" width="16" height="16"><defs><path d="M13.05 9.53C12.65 9.13 12 9.13 11.6 9.53C11.44 9.69 10.66 10.47 9.24 11.88L4.11 6.74C5.52 5.33 6.31 4.54 6.47 4.38C6.87 3.98 6.87 3.33 6.47 2.93C6.2 2.66 4.08 0.53 3.82 0.27C3.41 -0.13 2.76 -0.13 2.36 0.27C2.21 0.43 1.42 1.21 0 2.63C0 2.63 0 2.63 0 2.63C0 10.01 5.98 16 13.35 16C13.59 15.77 15.46 13.89 15.7 13.65C16.1 13.25 16.1 12.6 15.7 12.2C15.17 11.67 13.32 9.8 13.05 9.53Z" id="b6tw1Oxvy"></path></defs><g><g><g><use xlink:href="#b6tw1Oxvy" opacity="1" fill="#ffffff" fill-opacity="1"></use><g><use xlink:href="#b6tw1Oxvy" opacity="1" fill-opacity="0" stroke="#000000" stroke-width="1" stroke-opacity="0"></use></g></g></g></g></svg>