<?xml version="1.0" encoding="UTF-8" standalone="no"?>
<!DOCTYPE svg PUBLIC "-//W3C//DTD SVG 1.1//EN" "http://www.w3.org/Graphics/SVG/1.1/DTD/svg11.dtd">
<svg version="1.1" xmlns="http://www.w3.org/2000/svg" xmlns:xlink="http://www.w3.org/1999/xlink" preserveAspectRatio="xMidYMid meet" viewBox="0 0 16 16" width="16" height="16"><defs><path d="M8 6C6.3 6 5 4.7 5 3C5 3 5 3 5 3C5 1.3 6.3 0 8 0C8 0 8 0 8 0C9.7 0 11 1.3 11 3C11 3 11 3 11 3C11 4.7 9.7 6 8 6C8 6 8 6 8 6Z" id="hprTHtQDZ"></path><path d="M6 16L6 12L4 10L4 7L12 7L12 10L10 12L10 16L6 16Z" id="a12J2Mbp92"></path><path d="M2 5C0.9 5 0 4.1 0 3C0 3 0 3 0 3C0 1.9 0.9 1 2 1C2 1 2 1 2 1C3.1 1 4 1.9 4 3C4 3 4 3 4 3C4 4.1 3.1 5 2 5C2 5 2 5 2 5Z" id="a1RuZC9WKa"></path><path d="M3 6L0 6L0 9L1 10L1 14L4 14L4 11.4L3 10.4L3 6Z" id="c3gpk1EdZ"></path><path d="M14 5C15.1 5 16 4.1 16 3C16 3 16 3 16 3C16 1.9 15.1 1 14 1C14 1 14 1 14 1C12.9 1 12 1.9 12 3C12 3 12 3 12 3C12 4.1 12.9 5 14 5C14 5 14 5 14 5Z" id="bdXzheCfV"></path><path d="M13 6L16 6L16 9L15 10L15 14L12 14L12 11.4L13 10.4L13 6Z" id="b42OYOL55P"></path></defs><g><g><g><use xlink:href="#hprTHtQDZ" opacity="1" fill="#ffffff" fill-opacity="1"></use><g><use xlink:href="#hprTHtQDZ" opacity="1" fill-opacity="0" stroke="#000000" stroke-width="1" stroke-opacity="0"></use></g></g><g><use xlink:href="#a12J2Mbp92" opacity="1" fill="#ffffff" fill-opacity="1"></use><g><use xlink:href="#a12J2Mbp92" opacity="1" fill-opacity="0" stroke="#000000" stroke-width="1" stroke-opacity="0"></use></g></g><g><use xlink:href="#a1RuZC9WKa" opacity="1" fill="#ffffff" fill-opacity="1"></use><g><use xlink:href="#a1RuZC9WKa" opacity="1" fill-opacity="0" stroke="#000000" stroke-width="1" stroke-opacity="0"></use></g></g><g><use xlink:href="#c3gpk1EdZ" opacity="1" fill="#ffffff" fill-opacity="1"></use><g><use xlink:href="#c3gpk1EdZ" opacity="1" fill-opacity="0" stroke="#000000" stroke-width="1" stroke-opacity="0"></use></g></g><g><use xlink:href="#bdXzheCfV" opacity="1" fill="#ffffff" fill-opacity="1"></use><g><use xlink:href="#bdXzheCfV" opacity="1" fill-opacity="0" stroke="#000000" stroke-width="1" stroke-opacity="0"></use></g></g><g><use xlink:href="#b42OYOL55P" opacity="1" fill="#ffffff" fill-opacity="1"></use><g><use xlink:href="#b42OYOL55P" opacity="1" fill-opacity="0" stroke="#000000" stroke-width="1" stroke-opacity="0"></use></g></g></g></g></svg>