<?xml version="1.0" encoding="UTF-8" standalone="no"?>
<!DOCTYPE svg PUBLIC "-//W3C//DTD SVG 1.1//EN" "http://www.w3.org/Graphics/SVG/1.1/DTD/svg11.dtd">
<svg version="1.1" xmlns="http://www.w3.org/2000/svg" xmlns:xlink="http://www.w3.org/1999/xlink" preserveAspectRatio="xMidYMid meet" viewBox="0 0 16 16" width="16" height="16"><defs><path d="M8 0C5.24 0 3 2.24 3 5C3 7.76 5.24 10 8 10C10.76 10 13 7.76 13 5C13 2.24 10.76 0 8 0Z" id="j2SoqZI8kQ"></path><path d="M8.6 12C8.73 12.27 9.36 13.6 10.5 16L12.4 12.9L16 13.4L13.8 8.9C11.8 10.83 10.07 11.87 8.6 12Z" id="c4UFKVAkeG"></path><path d="M0 13.4L3.6 12.9L5.4 16C6.54 13.6 7.17 12.27 7.3 12C5.2 11.8 3.3 10.6 2.2 8.9C1.91 9.5 1.17 11 0 13.4Z" id="a1yyNtlqt"></path></defs><g><g><g><use xlink:href="#j2SoqZI8kQ" opacity="1" fill="#ffffff" fill-opacity="1"></use><g><use xlink:href="#j2SoqZI8kQ" opacity="1" fill-opacity="0" stroke="#000000" stroke-width="1" stroke-opacity="0"></use></g></g><g><use xlink:href="#c4UFKVAkeG" opacity="1" fill="#ffffff" fill-opacity="1"></use><g><use xlink:href="#c4UFKVAkeG" opacity="1" fill-opacity="0" stroke="#000000" stroke-width="1" stroke-opacity="0"></use></g></g><g><use xlink:href="#a1yyNtlqt" opacity="1" fill="#ffffff" fill-opacity="1"></use><g><use xlink:href="#a1yyNtlqt" opacity="1" fill-opacity="0" stroke="#000000" stroke-width="1" stroke-opacity="0"></use></g></g></g></g></svg>